<?xml version="1.0" encoding="utf-8"?>
<!-- Generator: Adobe Illustrator 19.2.1, SVG Export Plug-In . SVG Version: 6.00 Build 0)  -->
<svg version="1.1" id="layer" xmlns="http://www.w3.org/2000/svg" xmlns:xlink="http://www.w3.org/1999/xlink" x="0px" y="0px"
	 viewBox="0 0 652 652" style="enable-background:new 0 0 652 652;" xml:space="preserve">
<style type="text/css">
	.st0{fill:#4A5159;}
	.st1{clip-path:url(#SVGID_2_);fill:url(#SVGID_3_);}
	.st2{fill:url(#SVGID_4_);}
	.st3{clip-path:url(#SVGID_6_);fill:url(#SVGID_7_);}
	.st4{fill:url(#SVGID_8_);}
	.st5{clip-path:url(#SVGID_10_);fill:url(#SVGID_11_);}
	.st6{fill:url(#SVGID_12_);}
	.st7{fill:#FFFFFF;}
</style>
<polygon class="st0" points="41.6,382.5 556.9,382.2 534.8,444.7 20.3,445 "/>
<g>
	<defs>
		<path id="SVGID_1_" d="M157.1,201.1c-51.2,3.2-65.7,31-72.3,52.8c-6,26.4-0.6,45,36.2,50.4l55.9,0.5c-0.5,3.6-8.8,5.8-12,5.8
			l-93.9-0.8l-16.9,49.2l101.8,1.2c33.4-2.8,58.9-6.8,76.5-44.4c13.2-32.2,8.4-55.4-36.2-58.8h-52c0.4-2.3,5.7-8,10.4-7.8l94,0.6
			l16.9-49.2h-0.1L157.1,201.1z"/>
	</defs>
	<clipPath id="SVGID_2_">
		<use xlink:href="#SVGID_1_"  style="overflow:visible;"/>
	</clipPath>
	
		<linearGradient id="SVGID_3_" gradientUnits="userSpaceOnUse" x1="-170.3458" y1="594.7004" x2="-158.5022" y2="594.7004" gradientTransform="matrix(0.1123 -4.1966 4.2138 0.1119 -2327.3191 -489.4229)">
		<stop  offset="0" style="stop-color:#EE322E"/>
		<stop  offset="0.3309" style="stop-color:#F1512C"/>
		<stop  offset="0.7669" style="stop-color:#F4752B"/>
		<stop  offset="1" style="stop-color:#F5832A"/>
	</linearGradient>
	<polygon class="st1" points="265.4,365.7 269.8,200.6 54.2,194.9 49.8,360 	"/>
</g>
<g>
	
		<linearGradient id="SVGID_4_" gradientUnits="userSpaceOnUse" x1="-256.5532" y1="719.1869" x2="-244.7096" y2="719.1869" gradientTransform="matrix(3.358020e-002 -22.6696 22.7623 3.344350e-002 -16202.2012 -5386.4214)">
		<stop  offset="0" style="stop-color:#000000"/>
		<stop  offset="9.569709e-002" style="stop-color:#060606"/>
		<stop  offset="0.2201" style="stop-color:#161616"/>
		<stop  offset="0.3602" style="stop-color:#313131"/>
		<stop  offset="0.5119" style="stop-color:#565656"/>
		<stop  offset="0.6731" style="stop-color:#868686"/>
		<stop  offset="0.8394" style="stop-color:#C0C0C0"/>
		<stop  offset="1" style="stop-color:#FFFFFF"/>
	</linearGradient>
	<path class="st2" d="M265.5,200.5L265.5,200.5l-108.5,0.6c-51.2,3.2-65.7,31-72.3,52.8c-1.3,5.8-2.1,11.3-2.1,16.3
		c0,17.7,9.6,29.9,38.3,34.1l55.9,0.5c-0.5,3.6-8.7,5.8-12,5.8c0,0,0,0-0.1,0l-93.9-0.8L54,358.9l101.8,1.2
		c33.3-2.8,58.8-6.8,76.5-44.4c4.1-10,6.5-19.1,6.5-27c0-17.7-11.8-29.5-42.6-31.8h-52c0.4-2.3,5.5-7.8,10.2-7.8c0.1,0,0.1,0,0.2,0
		l94,0.6L265.5,200.5L265.5,200.5L265.5,200.5l-16.9,49.2l-94-0.6c-0.1,0-0.1,0-0.2,0c-4.7,0-9.8,5.5-10.2,7.8h52
		c30.8,2.3,42.6,14.1,42.6,31.8c0,7.9-2.4,17-6.5,27c-17.7,37.6-43.2,41.6-76.5,44.4L54,358.9l16.9-49.2l93.9,0.8c0,0,0,0,0.1,0
		c3.3,0,11.4-2.1,12-5.8l-55.9-0.5c-28.6-4.2-38.3-16.4-38.3-34.1c0-5,0.8-10.5,2.1-16.3c6.6-21.8,21.1-49.6,72.3-52.8L265.5,200.5
		L265.5,200.5z"/>
</g>
<g>
	<defs>
		<path id="SVGID_5_" d="M249.5,298.3c-9.8,46.7,7.7,68,69.8,62.8c34.7-0.1,73-16.1,84.6-51.4l38.7-108.5l-57.3-0.5l-37.7,104.7
			c-1.8,4.1-7.6,8.9-11.9,9l-22.9,0.5c-5.8-1.2-7.4-4.6-6.2-8.6l37.2-105.6l-56.8-0.5L249.5,298.3z"/>
	</defs>
	<clipPath id="SVGID_6_">
		<use xlink:href="#SVGID_5_"  style="overflow:visible;"/>
	</clipPath>
	
		<linearGradient id="SVGID_7_" gradientUnits="userSpaceOnUse" x1="-179.7175" y1="662.3964" x2="-167.8739" y2="662.3964" gradientTransform="matrix(-0.38 -5.0563 5.0769 -0.3785 -3088.542 -353.4032)">
		<stop  offset="0" style="stop-color:#EE322E"/>
		<stop  offset="0.3309" style="stop-color:#F1512C"/>
		<stop  offset="0.7669" style="stop-color:#F4752B"/>
		<stop  offset="1" style="stop-color:#F5832A"/>
	</linearGradient>
	<polygon class="st3" points="454.9,365.4 441.4,185.3 227.3,201.2 240.8,381.3 	"/>
</g>
<g>
	
		<linearGradient id="SVGID_8_" gradientUnits="userSpaceOnUse" x1="-258.8224" y1="728.4693" x2="-246.9788" y2="728.4693" gradientTransform="matrix(0.7609 -25.6223 25.7271 0.7578 -18205.7676 -6720.9238)">
		<stop  offset="0" style="stop-color:#000000"/>
		<stop  offset="9.569709e-002" style="stop-color:#060606"/>
		<stop  offset="0.2201" style="stop-color:#161616"/>
		<stop  offset="0.3602" style="stop-color:#313131"/>
		<stop  offset="0.5119" style="stop-color:#565656"/>
		<stop  offset="0.6731" style="stop-color:#868686"/>
		<stop  offset="0.8394" style="stop-color:#C0C0C0"/>
		<stop  offset="1" style="stop-color:#FFFFFF"/>
	</linearGradient>
	<path class="st4" d="M286.8,200.3L286.8,200.3l56.8,0.5l-37.3,105.6c-0.2,0.8-0.4,1.5-0.4,2.3c0,2.9,1.9,5.3,6.6,6.3l22.9-0.5
		c4.3-0.2,10.2-5,11.9-9l37.7-104.7l0,0l0,0l57.3,0.5l-38.7,108.5C392.3,345,354,361,319.2,361.1c-6.1,0.5-11.7,0.8-17,0.8
		c-39.2,0-55.3-14.1-55.3-41.9c0-6.5,0.9-13.7,2.5-21.7L286.8,200.3L286.8,200.3L286.8,200.3l-37.3,98c-1.7,8-2.5,15.2-2.5,21.7
		c0,27.8,16.2,41.9,55.3,41.9c5.2,0,10.9-0.3,17-0.8c34.7-0.1,73-16.1,84.6-51.4l38.7-108.5l-57.3-0.5l-37.7,104.7
		c-1.8,4.1-7.6,8.9-11.9,9l-22.9,0.5c-4.6-1-6.6-3.4-6.6-6.3c0-0.7,0.1-1.5,0.4-2.3l37.3-105.6L286.8,200.3L286.8,200.3z"/>
</g>
<g>
	<defs>
		<polygon id="SVGID_9_" points="485.3,296.7 462.4,360.4 402.5,360.4 402.5,360.4 460,202.3 520.6,201.6 537.1,262.3 562.6,200.2 
			620.3,201.4 562.7,360.4 507.3,360.5 		"/>
	</defs>
	<clipPath id="SVGID_10_">
		<use xlink:href="#SVGID_9_"  style="overflow:visible;"/>
	</clipPath>
	
		<linearGradient id="SVGID_11_" gradientUnits="userSpaceOnUse" x1="-184.7246" y1="807.2214" x2="-172.881" y2="807.2214" gradientTransform="matrix(-3.377790e-002 -5.0358 -5.0563 3.364040e-002 4586.8584 -655.9095)">
		<stop  offset="0" style="stop-color:#EE322E"/>
		<stop  offset="0.3309" style="stop-color:#F1512C"/>
		<stop  offset="0.7669" style="stop-color:#F4752B"/>
		<stop  offset="1" style="stop-color:#F5832A"/>
	</linearGradient>
	<polygon class="st5" points="402.5,362 401.4,200.2 620.3,198.8 621.3,360.5 	"/>
</g>
<g>
	
		<linearGradient id="SVGID_12_" gradientUnits="userSpaceOnUse" x1="-258.0699" y1="758.7984" x2="-246.2263" y2="758.7984" gradientTransform="matrix(-0.2007 -25.4689 -25.573 0.1999 19865.7383 -6263.1216)">
		<stop  offset="0" style="stop-color:#000000"/>
		<stop  offset="9.569709e-002" style="stop-color:#060606"/>
		<stop  offset="0.2201" style="stop-color:#161616"/>
		<stop  offset="0.3602" style="stop-color:#313131"/>
		<stop  offset="0.5119" style="stop-color:#565656"/>
		<stop  offset="0.6731" style="stop-color:#868686"/>
		<stop  offset="0.8394" style="stop-color:#C0C0C0"/>
		<stop  offset="1" style="stop-color:#FFFFFF"/>
	</linearGradient>
	<polygon class="st6" points="402.5,360.4 402.5,360.4 460,202.3 520.6,201.6 537.1,262.3 562.6,200.2 620.3,201.4 562.7,360.4 
		562.7,360.4 562.7,360.4 507.3,360.6 485.3,296.7 462.4,360.4 462.4,360.4 462.4,360.4 402.5,360.4 402.5,360.4 402.5,360.4 
		462.4,360.4 485.3,296.7 507.3,360.6 507.3,360.6 507.3,360.6 562.7,360.4 620.3,201.4 562.6,200.2 537.1,262.3 520.6,201.6 
		460,202.3 402.5,360.4 	"/>
</g>
<polygon class="st7" points="160.9,394.9 169.1,394.9 154.7,432.7 146.1,433 "/>
<g>
	<path class="st7" d="M351.4,394.9h-16c-10.1,1.2-16.4,6.9-20.2,14.7c-6.7,11.4-5,23.2,5.6,23l16,0.2l2.5-7.1l-14,0.2
		c-5.6,0-7.4-3.5-4.8-9.3l22.1,0.2l2.9-6.6h-22.5c1.5-4.2,2.9-7.2,11.3-8.9l14.6,0.4L351.4,394.9z"/>
	<path class="st7" d="M442.4,395h-16c-10.1,1.2-16.4,6.9-20.2,14.7c-6.7,11.4-5,23.2,5.6,23l16,0.2l2.5-7.1l-14,0.2
		c-5.6,0-7.4-3.5-4.8-9.3l2.5-6.4c1.5-4.2,2.9-7.2,11.3-8.9l14.6,0.4L442.4,395z"/>
	<path class="st7" d="M493.1,394.9c-1.7,5-2.7,6.8-2.7,6.8l12.1,0.2l-11.9,30.5l8.5,0.2l11.5-30.9l12.9-0.4l2.5-6.6L493.1,394.9z"/>
	<path class="st7" d="M255.4,394.7l-24-0.4l-14.6,38.4h8.5l5.4-15.1l9.8,0.4l2.3,14.9h8.8l-3.1-16c7-2.6,9.9-5.7,11.7-11.6
		C261.9,399.5,260.7,395.7,255.4,394.7 M252.7,405.7c-1,3.1-2.8,4.4-5.4,5l-13.8,0.2l3.5-9.5l12.1,0.2
		C252,402.1,253.4,403.3,252.7,405.7"/>
	<path class="st7" d="M86.4,395.1h-20l-15,37.8H76c9.1-1.5,15.1-8.3,18.3-17.4C97.9,402.9,96.1,395.3,86.4,395.1 M86.4,414.1
		c-1.9,5.9-4.7,10.8-10.7,11.2l-12.6,0.4l8.7-24.3h11.6C89.1,404.1,88.5,406.1,86.4,414.1"/>
</g>
</svg>
